<svg width="24" height="24" viewBox="0 0 24 24" fill="none" xmlns="http://www.w3.org/2000/svg">
<g id="vuesax/linear/document">
<g id="document">
<g id="Group">
<path id="Vector" d="M19.2101 15.74L15.67 19.2801C15.53 19.4201 15.4 19.68 15.37 19.87L15.18 21.22C15.11 21.71 15.45 22.05 15.94 21.98L17.29 21.79C17.48 21.76 17.75 21.63 17.88 21.49L21.42 17.95C22.03 17.34 22.32 16.63 21.42 15.73C20.53 14.84 19.8201 15.13 19.2101 15.74Z" stroke="#667085" stroke-width="1.5" stroke-miterlimit="10" stroke-linecap="round" stroke-linejoin="round"></path>
<path id="Vector_2" d="M18.7002 16.25C19.0002 17.33 19.8402 18.17 20.9202 18.47" stroke="#667085" stroke-width="1.5" stroke-miterlimit="10" stroke-linecap="round" stroke-linejoin="round"></path>
</g>
<path id="Vector_3" d="M21 12V7C21 4 19.5 2 16 2H8C4.5 2 3 4 3 7V17C3 20 4.5 22 8 22H12" stroke="#667085" stroke-width="1.5" stroke-miterlimit="10" stroke-linecap="round" stroke-linejoin="round"></path>
<path id="Vector_4" d="M8 8H16" stroke="#667085" stroke-width="1.5" stroke-miterlimit="10" stroke-linecap="round" stroke-linejoin="round"></path>
<path id="Vector_5" d="M8 12H12" stroke="#667085" stroke-width="1.5" stroke-miterlimit="10" stroke-linecap="round" stroke-linejoin="round"></path>
</g>
</g>
</svg>