<svg width="16" height="16" viewBox="0 0 16 16" fill="none" xmlns="http://www.w3.org/2000/svg">
<path d="M8 10C9.10457 10 10 9.10457 10 8C10 6.89543 9.10457 6 8 6C6.89543 6 6 6.89543 6 8C6 9.10457 6.89543 10 8 10Z" stroke="#667085" stroke-width="1.5" stroke-miterlimit="10" stroke-linecap="round" stroke-linejoin="round"></path>
<path d="M1.33334 8.58679V7.41345C1.33334 6.72012 1.90001 6.14679 2.60001 6.14679C3.80668 6.14679 4.30001 5.29345 3.69334 4.24679C3.34668 3.64679 3.55334 2.86679 4.16001 2.52012L5.31334 1.86012C5.84001 1.54679 6.52001 1.73345 6.83334 2.26012L6.90668 2.38679C7.50668 3.43345 8.49334 3.43345 9.10001 2.38679L9.17334 2.26012C9.48668 1.73345 10.1667 1.54679 10.6933 1.86012L11.8467 2.52012C12.4533 2.86679 12.66 3.64679 12.3133 4.24679C11.7067 5.29345 12.2 6.14679 13.4067 6.14679C14.1 6.14679 14.6733 6.71345 14.6733 7.41345V8.58679C14.6733 9.28012 14.1067 9.85345 13.4067 9.85345C12.2 9.85345 11.7067 10.7068 12.3133 11.7535C12.66 12.3601 12.4533 13.1335 11.8467 13.4801L10.6933 14.1401C10.1667 14.4535 9.48668 14.2668 9.17334 13.7401L9.10001 13.6135C8.50001 12.5668 7.51334 12.5668 6.90668 13.6135L6.83334 13.7401C6.52001 14.2668 5.84001 14.4535 5.31334 14.1401L4.16001 13.4801C3.55334 13.1335 3.34668 12.3535 3.69334 11.7535C4.30001 10.7068 3.80668 9.85345 2.60001 9.85345C1.90001 9.85345 1.33334 9.28012 1.33334 8.58679Z" stroke="#667085" stroke-width="1.5" stroke-miterlimit="10" stroke-linecap="round" stroke-linejoin="round"></path>
</svg>