<svg width="20" height="20" viewBox="0 0 20 20" fill="none" xmlns="http://www.w3.org/2000/svg">
<g id="Star">
<path id="Star_2" d="M11.7741 3.19375L13.2408 6.12708C13.4408 6.53542 13.9741 6.92708 14.4241 7.00208L17.0824 7.44375C18.7824 7.72708 19.1824 8.96042 17.9574 10.1771L15.8908 12.2437C15.5408 12.5937 15.3491 13.2687 15.4574 13.7521L16.0491 16.3104C16.5158 18.3354 15.4408 19.1187 13.6491 18.0604L11.1574 16.5854C10.7074 16.3188 9.96578 16.3188 9.50744 16.5854L7.01578 18.0604C5.23244 19.1187 4.14911 18.3271 4.61578 16.3104L5.20744 13.7521C5.31578 13.2687 5.12411 12.5937 4.77411 12.2437L2.70744 10.1771C1.49078 8.96042 1.88244 7.72708 3.58244 7.44375L6.24078 7.00208C6.68244 6.92708 7.21578 6.53542 7.41578 6.12708L8.88244 3.19375C9.68244 1.60208 10.9824 1.60208 11.7741 3.19375Z" fill="#FEC84B"></path>
</g>
</svg>