<svg id="Layer_1" data-name="Layer 1" xmlns="http://www.w3.org/2000/svg" xmlns:xlink="http://www.w3.org/1999/xlink" viewBox="0 0 65.65 65.65"><defs><clipPath id="clip-path" transform="translate(-0.17 -0.17)"><path class="cls-1" d="M33,1h0A32,32,0,0,1,65,33h0A32,32,0,0,1,33,65h0A32,32,0,0,1,1,33H1A32,32,0,0,1,33,1Z"></path></clipPath></defs><title>Icon-2</title><g class="cls-2"><path class="cls-3" d="M33,1h0A32,32,0,0,1,65,33h0A32,32,0,0,1,33,65h0A32,32,0,0,1,1,33H1A32,32,0,0,1,33,1Z" transform="translate(-0.17 -0.17)"></path><g class="cls-4"><path class="cls-5" d="M33,1.21h0A31.82,31.82,0,0,1,64.84,33h0A31.82,31.82,0,0,1,33,64.84h0A31.82,31.82,0,0,1,1.21,33h0A31.82,31.82,0,0,1,33,1.21Z" transform="translate(-0.17 -0.17)"></path></g><path class="cls-6" d="M45.07,46.45a13.79,13.79,0,0,0-.24-3.67,5.51,5.51,0,0,0-3.67-3.67,13.79,13.79,0,0,0-3.67-.24H30.61a13.79,13.79,0,0,0-3.67.24,5.51,5.51,0,0,0-3.67,3.67A13.79,13.79,0,0,0,23,46.45M40.25,27.86a6.2,6.2,0,1,1-6.2-6.2A6.2,6.2,0,0,1,40.25,27.86Z" transform="translate(-0.17 -0.17)"></path></g><path class="cls-1" d="M33,.17h0A32.83,32.83,0,0,1,65.83,33h0A32.83,32.83,0,0,1,33,65.83h0A32.83,32.83,0,0,1,.17,33h0A32.83,32.83,0,0,1,33,.17Z" transform="translate(-0.17 -0.17)"></path></svg>